<?xml version="1.0" standalone="no"?><svg xmlns="http://www.w3.org/2000/svg" viewBox="0 0 1440 320"><path fill="#FFF" fill-opacity="1" d="M0,96L30,122.7C60,149,120,203,180,186.7C240,171,300,85,360,96C420,107,480,213,540,224C600,235,660,149,720,133.3C780,117,840,171,900,176C960,181,1020,139,1080,112C1140,85,1200,75,1260,58.7C1320,43,1380,21,1410,10.7L1440,0L1440,0L1410,0C1380,0,1320,0,1260,0C1200,0,1140,0,1080,0C1020,0,960,0,900,0C840,0,780,0,720,0C660,0,600,0,540,0C480,0,420,0,360,0C300,0,240,0,180,0C120,0,60,0,30,0L0,0Z"></path></svg>