<?xml version="1.0" standalone="no"?><svg xmlns="http://www.w3.org/2000/svg" viewBox="0 0 1440 320"><path fill="#1A202C" fill-opacity="1" d="M0,96L30,122.7C60,149,120,203,180,186.7C240,171,300,85,360,96C420,107,480,213,540,224C600,235,660,149,720,133.3C780,117,840,171,900,176C960,181,1020,139,1080,112C1140,85,1200,75,1260,58.7C1320,43,1380,21,1410,10.7L1440,0L1440,320L1410,320C1380,320,1320,320,1260,320C1200,320,1140,320,1080,320C1020,320,960,320,900,320C840,320,780,320,720,320C660,320,600,320,540,320C480,320,420,320,360,320C300,320,240,320,180,320C120,320,60,320,30,320L0,320Z"></path></svg>